<svg width="1000" height="1000" viewBox="0 0 1000 1000" xmlns="http://www.w3.org/2000/svg"><defs/><path fill="#ffffff" transform="matrix(0.2798766793918274 0 0 0.27987667939182737 6.466276702195033 8.49385153472009)" d="M 541.86691174793 1744.94157568346 L 633.46691174793 1592.74157568346 C 672.26691174793 1528.24157568346 756.66691174793 1507.24157568346 821.16691174793 1546.04157568346 L 821.16691174793 1546.04157568346 C 822.46691174793 1546.84157568346 823.86691174793 1547.64157568346 825.16691174793 1548.54157568346 C 864.16691174793 1573.84157568346 877.66691174793 1615.64157568346 870.46691174793 1653.44157568346 C 859.16691174793 1713.14157568346 790.56691174793 1740.74157568346 738.56691174793 1709.14157568346 C 649.96691174793 1655.14157568346 541.86691174793 1744.94157568346 541.86691174793 1744.94157568346 Z"/><path fill="#ffffff" transform="matrix(0.2798766793918274 0 0 0.27987667939182737 6.466276702195033 8.49385153472009)" d="M 891.86691174793 1620.34157568346 L 977.86691174793 1775.74157568346 C 1014.26691174793 1841.54157568346 990.26691174793 1925.24157568346 924.46691174793 1961.64157568346 L 924.46691174793 1961.64157568346 C 923.06691174793 1962.44157568346 921.76691174793 1963.14157568346 920.36691174793 1963.84157568346 C 878.96691174793 1984.94157568346 836.06691174793 1975.74157568346 806.86691174793 1950.64157568346 C 760.76691174793 1910.94157568346 771.16691174793 1837.74157568346 824.56691174793 1808.64157568346 C 915.56691174793 1758.84157568346 891.86691174793 1620.34157568346 891.86691174793 1620.34157568346 Z"/><g opacity="0.42" transform="matrix(0.2798766793918274 0 0 0.27987667939182737 6.466276702195033 8.49385153472009)"><path fill="#ffffff" d="M 891.86691174793 1620.34157568346 L 977.86691174793 1775.74157568346 C 1014.26691174793 1841.54157568346 990.26691174793 1925.24157568346 924.46691174793 1961.64157568346 L 924.46691174793 1961.64157568346 C 923.06691174793 1962.44157568346 921.76691174793 1963.14157568346 920.36691174793 1963.84157568346 C 878.96691174793 1984.94157568346 836.06691174793 1975.74157568346 806.86691174793 1950.64157568346 C 760.76691174793 1910.94157568346 771.16691174793 1837.74157568346 824.56691174793 1808.64157568346 C 915.56691174793 1758.84157568346 891.86691174793 1620.34157568346 891.86691174793 1620.34157568346 Z"/></g><path fill="#ffffff" transform="matrix(0.2798766793918274 0 0 0.27987667939182737 6.466276702195033 8.49385153472009)" d="M 824.76691174793 1985.74157568346 L 647.16691174793 1982.54157568346 C 571.96691174793 1981.14157568346 511.56691174793 1918.54157568346 512.86691174793 1843.34157568346 L 512.86691174793 1843.34157568346 C 512.86691174793 1841.74157568346 512.96691174793 1840.24157568346 513.06691174793 1838.64157568346 C 515.46691174793 1792.24157568346 544.96691174793 1759.64157568346 581.26691174793 1746.94157568346 C 638.66691174793 1726.84157568346 696.86691174793 1772.54157568346 695.46691174793 1833.24157568346 C 692.96691174793 1937.04157568346 824.76691174793 1985.74157568346 824.76691174793 1985.74157568346 Z"/><g opacity="0.42" transform="matrix(0.2798766793918274 0 0 0.27987667939182737 6.466276702195033 8.49385153472009)"><path fill="#ffffff" d="M 824.76691174793 1985.74157568346 L 647.16691174793 1982.54157568346 C 571.96691174793 1981.14157568346 511.56691174793 1918.54157568346 512.86691174793 1843.34157568346 L 512.86691174793 1843.34157568346 C 512.86691174793 1841.74157568346 512.96691174793 1840.24157568346 513.06691174793 1838.64157568346 C 515.46691174793 1792.24157568346 544.96691174793 1759.64157568346 581.26691174793 1746.94157568346 C 638.66691174793 1726.84157568346 696.86691174793 1772.54157568346 695.46691174793 1833.24157568346 C 692.96691174793 1937.04157568346 824.76691174793 1985.74157568346 824.76691174793 1985.74157568346 Z"/></g><path id="text" fill="#ffffff" transform="matrix(0.8900793698374118 0 0 0.8900793698374116 164.2508275440785 59.605333844918505)" d="M 188.96398098581 459.45334319137 C 197.73198098581 459.45334319137 204.45198098581 461.61334319137 209.12398098581 465.93334319137 C 213.79598098581 470.25334319137 216.13198098581 476.02934319137 216.13198098581 483.26134319137 C 216.13198098581 486.14134319137 215.69998098581 489.03734319137 214.83598098581 491.94934319137 C 213.97198098581 494.86134319137 212.59598098581 497.50134319137 210.70798098581 499.86934319137 C 208.81998098581 502.23734319137 206.29198098581 504.14134319137 203.12398098581 505.58134319137 C 199.95598098581 507.02134319137 196.06798098581 507.74134319137 191.45998098581 507.74134319137 L 181.47598098581 507.74134319137 L 181.47598098581 530.10934319137 L 167.55598098581 530.10934319137 L 167.55598098581 459.45334319137 L 188.96398098581 459.45334319137 Z M 191.36398098581 494.20534319137 C 194.17998098581 494.20534319137 196.37198098581 493.58134319137 197.93998098581 492.33334319137 C 199.50798098581 491.08534319137 200.61198098581 489.62934319137 201.25198098581 487.96534319137 C 201.89198098581 486.30134319137 202.21198098581 484.86134319137 202.21198098581 483.64534319137 C 202.21198098581 482.94134319137 202.09998098581 481.99734319137 201.87598098581 480.81334319137 C 201.65198098581 479.62934319137 201.18798098581 478.42934319137 200.48398098581 477.21334319137 C 199.77998098581 475.99734319137 198.70798098581 474.97334319137 197.26798098581 474.14134319137 C 195.82798098581 473.30934319137 193.89198098581 472.89334319137 191.45998098581 472.89334319137 L 181.47598098581 472.89334319137 L 181.47598098581 494.20534319137 L 191.36398098581 494.20534319137 Z M 229.09198098581 494.87734319137 C 229.09198098581 490.01334319137 230.01998098581 485.40534319137 231.87598098581 481.05334319137 C 233.73198098581 476.70134319137 236.30798098581 472.84534319137 239.60398098581 469.48534319137 C 242.89998098581 466.12534319137 246.72398098581 463.48534319137 251.07598098581 461.56534319137 C 255.42798098581 459.64534319137 260.09998098581 458.68534319137 265.09198098581 458.68534319137 C 270.01998098581 458.68534319137 274.65998098581 459.64534319137 279.01198098581 461.56534319137 C 283.36398098581 463.48534319137 287.21998098581 466.12534319137 290.57998098581 469.48534319137 C 293.93998098581 472.84534319137 296.56398098581 476.70134319137 298.45198098581 481.05334319137 C 300.33998098581 485.40534319137 301.28398098581 490.01334319137 301.28398098581 494.87734319137 C 301.28398098581 499.86934319137 300.33998098581 504.54134319137 298.45198098581 508.89334319137 C 296.56398098581 513.24534319137 293.93998098581 517.06934319137 290.57998098581 520.36534319137 C 287.21998098581 523.66134319137 283.36398098581 526.23734319137 279.01198098581 528.09334319137 C 274.65998098581 529.94934319137 270.01998098581 530.87734319137 265.09198098581 530.87734319137 C 260.09998098581 530.87734319137 255.42798098581 529.94934319137 251.07598098581 528.09334319137 C 246.72398098581 526.23734319137 242.89998098581 523.66134319137 239.60398098581 520.36534319137 C 236.30798098581 517.06934319137 233.73198098581 513.24534319137 231.87598098581 508.89334319137 C 230.01998098581 504.54134319137 229.09198098581 499.86934319137 229.09198098581 494.87734319137 Z M 243.49198098581 494.87734319137 C 243.49198098581 499.03734319137 244.46798098581 502.82934319137 246.41998098581 506.25334319137 C 248.37198098581 509.67734319137 251.01198098581 512.39734319137 254.33998098581 514.41334319137 C 257.66798098581 516.42934319137 261.41198098581 517.43734319137 265.57198098581 517.43734319137 C 269.60398098581 517.43734319137 273.23598098581 516.42934319137 276.46798098581 514.41334319137 C 279.69998098581 512.39734319137 282.24398098581 509.67734319137 284.09998098581 506.25334319137 C 285.95598098581 502.82934319137 286.88398098581 499.03734319137 286.88398098581 494.87734319137 C 286.88398098581 490.58934319137 285.92398098581 486.73334319137 284.00398098581 483.30934319137 C 282.08398098581 479.88534319137 279.49198098581 477.16534319137 276.22798098581 475.14934319137 C 272.96398098581 473.13334319137 269.28398098581 472.12534319137 265.18798098581 472.12534319137 C 261.09198098581 472.12534319137 257.41198098581 473.13334319137 254.14798098581 475.14934319137 C 250.88398098581 477.16534319137 248.29198098581 479.88534319137 246.37198098581 483.30934319137 C 244.45198098581 486.73334319137 243.49198098581 490.58934319137 243.49198098581 494.87734319137 Z M 341.41198098581 459.45334319137 C 350.30798098581 459.45334319137 357.13998098581 461.61334319137 361.90798098581 465.93334319137 C 366.67598098581 470.25334319137 369.05998098581 476.02934319137 369.05998098581 483.26134319137 C 369.05998098581 487.29334319137 368.21198098581 491.26134319137 366.51598098581 495.16534319137 C 364.81998098581 499.06934319137 361.95598098581 502.17334319137 357.92398098581 504.47734319137 L 374.33998098581 530.10934319137 L 358.11598098581 530.10934319137 L 343.23598098581 507.64534319137 L 333.92398098581 507.64534319137 L 333.92398098581 530.10934319137 L 320.00398098581 530.10934319137 L 320.00398098581 459.45334319137 L 341.41198098581 459.45334319137 Z M 343.81198098581 494.20534319137 C 346.62798098581 494.20534319137 348.81998098581 493.61334319137 350.38798098581 492.42934319137 C 351.95598098581 491.24534319137 353.05998098581 489.83734319137 353.69998098581 488.20534319137 C 354.33998098581 486.57334319137 354.65998098581 485.08534319137 354.65998098581 483.74134319137 C 354.65998098581 482.97334319137 354.54798098581 481.99734319137 354.32398098581 480.81334319137 C 354.09998098581 479.62934319137 353.63598098581 478.42934319137 352.93198098581 477.21334319137 C 352.22798098581 475.99734319137 351.15598098581 474.97334319137 349.71598098581 474.14134319137 C 348.27598098581 473.30934319137 346.33998098581 472.89334319137 343.90798098581 472.89334319137 L 333.92398098581 472.89334319137 L 333.92398098581 494.20534319137 L 343.81198098581 494.20534319137 Z M 384.41998098581 459.45334319137 L 432.03598098581 459.45334319137 L 432.03598098581 472.89334319137 L 414.85198098581 472.89334319137 L 414.85198098581 530.10934319137 L 400.93198098581 530.10934319137 L 400.93198098581 472.89334319137 L 384.41998098581 472.89334319137 L 384.41998098581 459.45334319137 Z M 450.27598098581 459.45334319137 L 494.43598098581 459.45334319137 L 494.43598098581 472.89334319137 L 464.19598098581 472.89334319137 L 464.19598098581 488.92534319137 L 490.40398098581 488.92534319137 L 490.40398098581 502.36534319137 L 464.19598098581 502.36534319137 L 464.19598098581 530.10934319137 L 450.27598098581 530.10934319137 L 450.27598098581 459.45334319137 Z M 508.35598098581 494.87734319137 C 508.35598098581 490.01334319137 509.28398098581 485.40534319137 511.13998098581 481.05334319137 C 512.99598098581 476.70134319137 515.57198098581 472.84534319137 518.86798098581 469.48534319137 C 522.16398098581 466.12534319137 525.98798098581 463.48534319137 530.33998098581 461.56534319137 C 534.69198098581 459.64534319137 539.36398098581 458.68534319137 544.35598098581 458.68534319137 C 549.28398098581 458.68534319137 553.92398098581 459.64534319137 558.27598098581 461.56534319137 C 562.62798098581 463.48534319137 566.48398098581 466.12534319137 569.84398098581 469.48534319137 C 573.20398098581 472.84534319137 575.82798098581 476.70134319137 577.71598098581 481.05334319137 C 579.60398098581 485.40534319137 580.54798098581 490.01334319137 580.54798098581 494.87734319137 C 580.54798098581 499.86934319137 579.60398098581 504.54134319137 577.71598098581 508.89334319137 C 575.82798098581 513.24534319137 573.20398098581 517.06934319137 569.84398098581 520.36534319137 C 566.48398098581 523.66134319137 562.62798098581 526.23734319137 558.27598098581 528.09334319137 C 553.92398098581 529.94934319137 549.28398098581 530.87734319137 544.35598098581 530.87734319137 C 539.36398098581 530.87734319137 534.69198098581 529.94934319137 530.33998098581 528.09334319137 C 525.98798098581 526.23734319137 522.16398098581 523.66134319137 518.86798098581 520.36534319137 C 515.57198098581 517.06934319137 512.99598098581 513.24534319137 511.13998098581 508.89334319137 C 509.28398098581 504.54134319137 508.35598098581 499.86934319137 508.35598098581 494.87734319137 Z M 522.75598098581 494.87734319137 C 522.75598098581 499.03734319137 523.73198098581 502.82934319137 525.68398098581 506.25334319137 C 527.63598098581 509.67734319137 530.27598098581 512.39734319137 533.60398098581 514.41334319137 C 536.93198098581 516.42934319137 540.67598098581 517.43734319137 544.83598098581 517.43734319137 C 548.86798098581 517.43734319137 552.49998098581 516.42934319137 555.73198098581 514.41334319137 C 558.96398098581 512.39734319137 561.50798098581 509.67734319137 563.36398098581 506.25334319137 C 565.21998098581 502.82934319137 566.14798098581 499.03734319137 566.14798098581 494.87734319137 C 566.14798098581 490.58934319137 565.18798098581 486.73334319137 563.26798098581 483.30934319137 C 561.34798098581 479.88534319137 558.75598098581 477.16534319137 555.49198098581 475.14934319137 C 552.22798098581 473.13334319137 548.54798098581 472.12534319137 544.45198098581 472.12534319137 C 540.35598098581 472.12534319137 536.67598098581 473.13334319137 533.41198098581 475.14934319137 C 530.14798098581 477.16534319137 527.55598098581 479.88534319137 525.63598098581 483.30934319137 C 523.71598098581 486.73334319137 522.75598098581 490.58934319137 522.75598098581 494.87734319137 Z M 599.26798098581 459.45334319137 L 613.18798098581 459.45334319137 L 613.18798098581 516.66934319137 L 646.40398098581 516.66934319137 L 646.40398098581 530.10934319137 L 599.26798098581 530.10934319137 L 599.26798098581 459.45334319137 Z M 665.60398098581 459.45334319137 L 679.52398098581 459.45334319137 L 679.52398098581 530.10934319137 L 665.60398098581 530.10934319137 L 665.60398098581 459.45334319137 Z M 698.24398098581 494.87734319137 C 698.24398098581 490.01334319137 699.17198098581 485.40534319137 701.02798098581 481.05334319137 C 702.88398098581 476.70134319137 705.45998098581 472.84534319137 708.75598098581 469.48534319137 C 712.05198098581 466.12534319137 715.87598098581 463.48534319137 720.22798098581 461.56534319137 C 724.57998098581 459.64534319137 729.25198098581 458.68534319137 734.24398098581 458.68534319137 C 739.17198098581 458.68534319137 743.81198098581 459.64534319137 748.16398098581 461.56534319137 C 752.51598098581 463.48534319137 756.37198098581 466.12534319137 759.73198098581 469.48534319137 C 763.09198098581 472.84534319137 765.71598098581 476.70134319137 767.60398098581 481.05334319137 C 769.49198098581 485.40534319137 770.43598098581 490.01334319137 770.43598098581 494.87734319137 C 770.43598098581 499.86934319137 769.49198098581 504.54134319137 767.60398098581 508.89334319137 C 765.71598098581 513.24534319137 763.09198098581 517.06934319137 759.73198098581 520.36534319137 C 756.37198098581 523.66134319137 752.51598098581 526.23734319137 748.16398098581 528.09334319137 C 743.81198098581 529.94934319137 739.17198098581 530.87734319137 734.24398098581 530.87734319137 C 729.25198098581 530.87734319137 724.57998098581 529.94934319137 720.22798098581 528.09334319137 C 715.87598098581 526.23734319137 712.05198098581 523.66134319137 708.75598098581 520.36534319137 C 705.45998098581 517.06934319137 702.88398098581 513.24534319137 701.02798098581 508.89334319137 C 699.17198098581 504.54134319137 698.24398098581 499.86934319137 698.24398098581 494.87734319137 Z M 712.64398098581 494.87734319137 C 712.64398098581 499.03734319137 713.61998098581 502.82934319137 715.57198098581 506.25334319137 C 717.52398098581 509.67734319137 720.16398098581 512.39734319137 723.49198098581 514.41334319137 C 726.81998098581 516.42934319137 730.56398098581 517.43734319137 734.72398098581 517.43734319137 C 738.75598098581 517.43734319137 742.38798098581 516.42934319137 745.61998098581 514.41334319137 C 748.85198098581 512.39734319137 751.39598098581 509.67734319137 753.25198098581 506.25334319137 C 755.10798098581 502.82934319137 756.03598098581 499.03734319137 756.03598098581 494.87734319137 C 756.03598098581 490.58934319137 755.07598098581 486.73334319137 753.15598098581 483.30934319137 C 751.23598098581 479.88534319137 748.64398098581 477.16534319137 745.37998098581 475.14934319137 C 742.11598098581 473.13334319137 738.43598098581 472.12534319137 734.33998098581 472.12534319137 C 730.24398098581 472.12534319137 726.56398098581 473.13334319137 723.29998098581 475.14934319137 C 720.03598098581 477.16534319137 717.44398098581 479.88534319137 715.52398098581 483.30934319137 C 713.60398098581 486.73334319137 712.64398098581 490.58934319137 712.64398098581 494.87734319137 Z"/></svg>